<svg height="681pt" viewBox="-21 -82 681.33464 681" width="681pt" xmlns="http://www.w3.org/2000/svg"><path d="m161.71875 265.195312c-15.496094 0-28.101562 12.605469-28.101562 28.097657 0 15.496093 12.605468 28.105469 28.101562 28.105469 15.5 0 28.105469-12.609376 28.105469-28.105469-.003907-15.492188-12.613281-28.097657-28.105469-28.097657zm0 0"/><path d="m390.785156 36.078125c0-22.128906-17.945312-40.070313-40.070312-40.070313h-62.511719c-22.125 0-40.066406 17.941407-40.066406 40.070313v67.246094h142.648437zm-71.328125 40.4375c-10.875 0-19.691406-8.816406-19.691406-19.691406 0-10.878907 8.816406-19.695313 19.691406-19.695313 10.878907 0 19.695313 8.816406 19.695313 19.695313 0 10.871093-8.816406 19.691406-19.695313 19.691406zm0 0"/><path d="m597.6875 141.179688h-556.460938c-22.722656 0-41.1445308 18.421874-41.1445308 41.144531v288.585937c0 22.722656 18.4218748 41.148438 41.1445308 41.148438h23.601563v-66.117188c0-44.671875 31.378906-82.125 73.246094-91.542968-24.484375-9.507813-41.890625-33.300782-41.890625-61.101563 0-36.132813 29.402344-65.527344 65.53125-65.527344 36.136718 0 65.53125 29.394531 65.53125 65.527344 0 27.800781-17.40625 51.59375-41.886719 61.101563 41.867187 9.421874 73.242187 46.871093 73.242187 91.542968v66.117188h339.082032c22.726562 0 41.152344-18.425782 41.152344-41.148438v-288.585937c0-22.722657-18.421876-41.144531-41.148438-41.144531zm-28.597656 311.140624h-176.730469c-10.453125 0-18.929687-8.476562-18.929687-18.929687s8.476562-18.925781 18.929687-18.925781h176.730469c10.453125 0 18.925781 8.472656 18.925781 18.925781s-8.472656 18.929687-18.925781 18.929687zm0-78.773437h-176.730469c-10.453125 0-18.929687-8.46875-18.929687-18.925781 0-10.453125 8.476562-18.925782 18.929687-18.925782h176.730469c10.453125 0 18.925781 8.472657 18.925781 18.925782s-8.472656 18.925781-18.925781 18.925781zm0-78.765625h-257.519532c-10.453124 0-18.929687-8.476562-18.929687-18.933594 0-10.453125 8.476563-18.929687 18.929687-18.929687h257.519532c10.453125 0 18.925781 8.476562 18.925781 18.929687 0 10.457032-8.472656 18.933594-18.925781 18.933594zm0 0"/><path d="m164.757812 389.515625h-6.078124c-31.113282 0-56.417969 25.3125-56.417969 56.425781v66.117188h118.917969v-66.117188c0-31.113281-25.3125-56.425781-56.421876-56.425781zm0 0"/></svg>