<svg id="Layer_1" enable-background="new 0 0 511.842 511.842" height="512" viewBox="0 0 511.842 511.842" width="512" xmlns="http://www.w3.org/2000/svg"><g><path d="m155.239 231.731 39.023-61.689c3.006-4.753 8.413-7.436 14.019-6.921 5.601.502 10.449 4.096 12.561 9.307l47.752 117.862 46.113-53.366c2.85-3.297 6.991-5.192 11.35-5.192h137.645c21.45-59.997-3.407-133.277-59.307-160.613-48.488-25.791-113.146-13.676-148.474 27.828-35.324-41.505-99.991-53.619-148.474-27.828-55.901 27.335-80.757 100.618-59.306 160.612z"/><path d="m496.921 231.731h-33.219c-3.385 10.396-7.816 20.52-13.142 30h-117.641l-57.666 66.736c-3.409 3.963-8.704 5.846-13.796 4.991-5.154-.852-9.494-4.324-11.456-9.166l-45.997-113.532-27.827 43.989c-2.749 4.347-7.534 6.981-12.677 6.981h-102.218c-5.325-9.48-9.756-19.605-13.141-30h-33.22c-19.902.793-19.887 29.215 0 30h46.361c6.961 12.391 15.438 23.682 25.113 33.005 4.55 4.559 145.737 148.632 146.961 149.887l.261.261-.001.001c5.875 5.876 13.697 9.198 22.026 9.354.186.004.373.004.559 0 8.329-.155 16.151-3.478 22.026-9.354l-.001-.001.304-.305c1.181-1.212 142.402-145.318 146.919-149.845 9.674-9.322 18.151-20.612 25.112-33.003h46.361c19.901-.791 19.886-29.213-.001-29.999z"/></g></svg>